<?xml version="1.0" encoding="UTF-8" standalone="no"?>
<svg
   xmlns:dc="http://purl.org/dc/elements/1.1/"
   xmlns:cc="http://creativecommons.org/ns#"
   xmlns:rdf="http://www.w3.org/1999/02/22-rdf-syntax-ns#"
   xmlns:svg="http://www.w3.org/2000/svg"
   xmlns="http://www.w3.org/2000/svg"
   xmlns:sodipodi="http://sodipodi.sourceforge.net/DTD/sodipodi-0.dtd"
   xmlns:inkscape="http://www.inkscape.org/namespaces/inkscape"
   width="900"
   height="900"
   viewBox="0 0 148.122 148.122"
   version="1.1"
   id="svg8"
   inkscape:version="1.0 (4035a4fb49, 2020-05-01)"
   sodipodi:docname="SPCLS_ground_Floor.svg">
  <defs
     id="defs2" />
  <sodipodi:namedview
     id="base"
     pagecolor="#000000"
     bordercolor="#666666"
     borderopacity="1.0"
     inkscape:pageopacity="0"
     inkscape:pageshadow="2"
     inkscape:zoom="0.24748738"
     inkscape:cx="1590.5317"
     inkscape:cy="2456.2675"
     inkscape:document-units="px"
     inkscape:current-layer="layer1"
     inkscape:document-rotation="0"
     showgrid="false"
     inkscape:window-width="1920"
     inkscape:window-height="1017"
     inkscape:window-x="-8"
     inkscape:window-y="-8"
     inkscape:window-maximized="1"
     units="px"
     width="209mm"
     scale-x="0.16458" />
  <metadata
     id="metadata5">
    <rdf:RDF>
      <cc:Work
         rdf:about="">
        <dc:format>image/svg+xml</dc:format>
        <dc:type
           rdf:resource="http://purl.org/dc/dcmitype/StillImage" />
        <dc:title />
      </cc:Work>
    </rdf:RDF>
  </metadata>
  <g
     inkscape:label="Layer 1"
     inkscape:groupmode="layer"
     id="layer1">
    <rect
       style="fill:#008080;stroke-width:1.03883"
       id="Territory_1"
       width="57.237938"
       height="46.058178"
       x="404.5123"
       y="408.30823"
       inkscape:label="StaffRoom" />
    <rect
       style="fill:#008080;stroke-width:1.03883"
       id="Territory_11"
       width="69.503204"
       height="37.977798"
       x="370.68298"
       y="461.63873"
       inkscape:label="Reception" />
    <rect
       style="fill:#008080;stroke-width:0.94255"
       id="Territory_3"
       width="29.169292"
       height="18.584879"
       x="369.07925"
       y="435.78152"
       inkscape:label="EmmasDesk" />
    <rect
       style="fill:#008080;stroke-width:1.03883"
       id="Territory_5"
       width="13.11701"
       height="43.836071"
       x="463.59006"
       y="410.53033"
       inkscape:label="StaffRoomKitchen" />
    <rect
       inkscape:label="MRIMachine"
       y="248.72069"
       x="32.806385"
       height="39.593872"
       width="45.994766"
       id="Territory_6"
       style="fill:#008080;stroke-width:1.03883" />
    <rect
       inkscape:label="MRIOuter"
       y="247.50861"
       x="80.913513"
       height="110.70125"
       width="21.464226"
       id="Territory_7"
       style="fill:#008080;stroke-width:1.28888" />
    <rect
       inkscape:label="MRI_Loo"
       y="360.47235"
       x="80.913513"
       height="23.837137"
       width="22.07748"
       id="Territory_8"
       style="fill:#008080;stroke-width:1.03883" />
    <rect
       inkscape:label="G37ComputerRoom"
       y="557.3913"
       x="304.68658"
       height="127.67003"
       width="58.600739"
       id="Territory_9"
       style="fill:#008080;stroke-width:1.03883" />
    <rect
       inkscape:label="CINNComputerRoom"
       y="432.14532"
       x="30.762177"
       height="82.015877"
       width="36.11441"
       id="Territory_10"
       style="fill:#008080;stroke-width:1.03883" />
    <rect
       inkscape:label="SeminarRoom"
       y="268.51764"
       x="181.69312"
       height="44.442101"
       width="70.184608"
       id="Territory_12"
       style="fill:#008080;stroke-width:1.03883" />
    <rect
       style="fill:#008080;stroke-width:1.03883"
       id="Territory_31"
       width="68.140396"
       height="29.897413"
       x="388.83997"
       y="345.28128"
       inkscape:label="bench_2" />
    <rect
       style="fill:#008080;stroke-width:1.03883"
       id="Territory_32"
       width="89.945328"
       height="27.473299"
       x="437.2197"
       y="288.71857"
       inkscape:label="bench_3" />
    <rect
       style="fill:#008080;stroke-width:1.03883"
       id="Territory_30"
       width="80.405663"
       height="29.897413"
       x="493.09479"
       y="345.28128"
       inkscape:label="bench_1" />
    <rect
       style="fill:#008080;stroke-width:1.03883"
       id="Territory_40"
       width="22.486332"
       height="83.227921"
       x="291.3992"
       y="411.54031"
       inkscape:label="Loos1" />
    <rect
       style="fill:#008080;stroke-width:1.03883"
       id="Territory_50"
       width="24.091269"
       height="52.565979"
       x="80.26812"
       y="595.91107"
       inkscape:label="cinn_loos" />
    <rect
       style="fill:#008080;stroke-width:1.03883"
       id="Territory_51"
       width="23.370462"
       height="27.054157"
       x="32.806385"
       y="295.10208"
       inkscape:label="north_stiarwell" />
    <rect
       style="fill:#008080;stroke-width:1.03883"
       id="Territory_61"
       width="52.622356"
       height="42.436291"
       x="478.61493"
       y="409.6676"
       inkscape:label="postgrad_relax" />
    <rect
       style="fill:#008080;stroke-width:1.03883"
       id="Territory_60"
       width="70.346504"
       height="28.568466"
       x="460.91019"
       y="470.20978"
       inkscape:label="vision_lab" />
    <rect
       style="fill:#008080;stroke-width:1.03883"
       id="Territory_53"
       width="35.533001"
       height="54.324081"
       x="30.762177"
       y="515.47778"
       inkscape:label="g10" />
    <rect
       style="fill:#008080;stroke-width:1.03883"
       id="Territory_54"
       width="33.245953"
       height="56.565563"
       x="32.085587"
       y="346.22266"
       inkscape:label="cinn_conference_room" />
    <rect
       style="fill:#008080;stroke-width:0.905633"
       id="Territory_55"
       width="35.472401"
       height="21.882795"
       x="30.762177"
       y="405.73752"
       inkscape:label="cinn_meeting_room" />
    <rect
       style="fill:#008080;stroke-width:1.03883"
       id="Territory_71"
       width="32.70739"
       height="37.977798"
       x="330.23926"
       y="227.30766"
       inkscape:label="exec_admin" />
    <rect
       style="fill:#008080;stroke-width:1.03883"
       id="Territory_70"
       width="36.114403"
       height="41.209953"
       x="328.33133"
       y="269.81046"
       inkscape:label="finance" />
    <rect
       style="fill:#008080;stroke-width:0.64619"
       id="Territory_2"
       width="94.096237"
       height="128.67271"
       x="147.08731"
       y="407.39914"
       inkscape:label="croquet_lawn" />
    <rect
       style="fill:#008080;stroke-width:1.36518"
       id="Territory_34"
       width="30.885828"
       height="51.028591"
       x="333.8201"
       y="409.5127"
       inkscape:label="Stairwell" />
    <rect
       style="fill:#008080;stroke-width:0.64619"
       id="Territory_41"
       width="22.478407"
       height="17.415163"
       x="304.56726"
       y="534.28497"
       inkscape:label="supply_room" />
    <rect
       style="fill:#008080;stroke-width:0.64619"
       id="Territory_36"
       width="30.870344"
       height="47.625145"
       x="332.14078"
       y="502.29794"
       inkscape:label="secret_admin" />
    <rect
       style="fill:#008080;stroke-width:0.64619"
       id="Territory_37"
       width="12.887618"
       height="13.150228"
       x="54.607407"
       y="595.77112"
       inkscape:label="cinn_first_aid" />
    <path
       style="fill:#a02c2c;stroke:#000000;stroke-width:0.261391px;stroke-linecap:butt;stroke-linejoin:miter;stroke-opacity:1"
       d="m 29.930053,614.38205 v 70.54794 h 29.173325 l -0.711545,-41.54491 h -8.538538 l -0.712597,-27.48212 z"
       id="Territory_14" />
    <rect
       style="fill:#008080;stroke-width:0.261391"
       id="Territory_13"
       width="21.702105"
       height="38.017479"
       x="292.8457"
       y="363.93701" />
    <rect
       style="fill:#008080;stroke-width:0.261391"
       id="Territory_62"
       width="22.892775"
       height="18.845409"
       x="292.65942"
       y="339.59604" />
    <rect
       style="fill:#008080;stroke-width:0.261391"
       id="Territory_64"
       width="16.100414"
       height="17.736856"
       x="328.88538"
       y="340.42743" />
    <rect
       style="fill:#008080;stroke-width:0.261391"
       id="Territory_65"
       width="15.848842"
       height="18.845409"
       x="328.88538"
       y="363.98419" />
    <rect
       style="fill:#008080;stroke-width:0.261391"
       id="Territory_66"
       width="15.094136"
       height="14.411195"
       x="328.63379"
       y="388.92664" />
    <rect
       style="fill:#008080;stroke-width:0.261391"
       id="Territory_63"
       width="16.351988"
       height="21.893934"
       x="328.82941"
       y="314.31274" />
    <rect
       style="fill:#008080;stroke-width:0.261391"
       id="Territory_59"
       width="14.590998"
       height="32.148048"
       x="293.16257"
       y="303.84518" />
    <rect
       style="fill:#008080;stroke-width:0.261391"
       id="Territory_56"
       width="14.590998"
       height="26.051004"
       x="292.65942"
       y="271.41998" />
    <rect
       style="fill:#008080;stroke-width:0.261391"
       id="Territory_49"
       width="32.200825"
       height="27.436695"
       x="292.65942"
       y="225.13788" />
    <rect
       style="fill:#008080;stroke-width:0.261391"
       id="Territory_58"
       width="15.597273"
       height="42.402176"
       x="273.54016"
       y="269.75714" />
    <rect
       style="fill:#008080;stroke-width:0.261391"
       id="Territory_57"
       width="14.36694"
       height="41.424587"
       x="255.14815"
       y="269.62619" />
    <rect
       style="fill:#008080;stroke-width:0.405104"
       id="Territory_47"
       width="32.628979"
       height="28.268108"
       x="254.67249"
       y="225.41501" />
    <rect
       style="fill:#008080;stroke-width:0.353534"
       id="Territory_45"
       width="32.673607"
       height="28.822374"
       x="215.42778"
       y="224.30647" />
    <rect
       style="fill:#008080;stroke-width:0.509784"
       id="Territory_43"
       width="26.764194"
       height="28.545246"
       x="183.02084"
       y="224.5836" />
    <path
       style="fill:#a02c2c;stroke:#000000;stroke-width:0.261391px;stroke-linecap:butt;stroke-linejoin:miter;stroke-opacity:1"
       d="m 177.44085,304.67659 -29.68513,-59.03047 30.18827,-22.44821 z"
       id="Territory_42" />
    <rect
       style="fill:#008080;stroke-width:0.261391"
       id="Territory_99"
       width="13.584723"
       height="68.730309"
       x="289.64059"
       y="612.57727" />
    <rect
       style="fill:#008080;stroke-width:0.261391"
       id="Territory_79"
       width="18.855928"
       height="39.781178"
       x="267.76373"
       y="642.20929" />
    <rect
       style="fill:#008080;stroke-width:0.261391"
       id="Territory_76"
       width="19.567467"
       height="40.173111"
       x="243.21548"
       y="642.01331" />
    <rect
       style="fill:#008080;stroke-width:0.261391"
       id="Territory_74"
       width="20.634785"
       height="40.761013"
       x="217.95566"
       y="641.42542" />
    <rect
       style="fill:#008080;stroke-width:0.261391"
       id="Territory_98"
       width="20.456902"
       height="39.58522"
       x="191.8064"
       y="642.20929" />
    <rect
       style="fill:#008080;stroke-width:0.261391"
       id="Territory_77"
       width="12.807799"
       height="22.92807"
       x="256.02325"
       y="597.92084" />
    <rect
       style="fill:#008080;stroke-width:0.261391"
       id="Territory_75"
       width="13.341457"
       height="26.259497"
       x="237.16736"
       y="596.35315" />
    <rect
       style="fill:#008080;stroke-width:0.261391"
       id="Territory_73"
       width="26.682915"
       height="27.23933"
       x="205.68153"
       y="596.35315" />
    <rect
       style="fill:#008080;stroke-width:0.261391"
       id="Territory_72"
       width="19.033813"
       height="26.063532"
       x="181.31111"
       y="596.54913" />
    <rect
       style="fill:#008080;stroke-width:0.261391"
       id="Territory_97"
       width="14.58666"
       height="26.847399"
       x="162.09941"
       y="596.1571" />
    <rect
       style="fill:#008080;stroke-width:0.261391"
       id="Territory_96"
       width="15.120318"
       height="27.827234"
       x="143.2435"
       y="595.56927" />
    <rect
       style="fill:#008080;stroke-width:0.261391"
       id="Territory_68"
       width="18.67803"
       height="25.279665"
       x="121.54137"
       y="596.35315" />
    <rect
       style="fill:#008080;stroke-width:0.261391"
       id="Territory_69"
       width="29.351208"
       height="41.93681"
       x="147.69063"
       y="641.22949" />
    <rect
       style="fill:#008080;stroke-width:0.261391"
       id="Territory_67"
       width="21.702105"
       height="19.596642"
       x="122.60871"
       y="641.03351" />
    <rect
       style="fill:#008080;stroke-width:0.261391"
       id="Territory_82"
       width="23.608618"
       height="21.956247"
       x="79.738159"
       y="390.18848" />
    <rect
       style="fill:#008080;stroke-width:0.261391"
       id="Territory_94"
       width="25.031704"
       height="18.420835"
       x="79.026634"
       y="418.02371" />
    <rect
       style="fill:#008080;stroke-width:0.261391"
       id="Territory_83"
       width="26.099022"
       height="24.299828"
       x="76.536201"
       y="442.71545" />
    <rect
       style="fill:#008080;stroke-width:0.261391"
       id="Territory_84"
       width="26.327141"
       height="24.691767"
       x="76.536217"
       y="472.11044" />
    <rect
       style="fill:#008080;stroke-width:0.261391"
       id="Territory_85"
       width="23.658852"
       height="25.867567"
       x="77.959297"
       y="503.66107" />
    <rect
       style="fill:#008080;stroke-width:0.261391"
       id="Territory_86"
       width="21.524218"
       height="26.063532"
       x="79.560287"
       y="535.21161" />
    <rect
       style="fill:#008080;stroke-width:0.261391"
       id="Territory_87"
       width="21.524218"
       height="26.259497"
       x="79.560287"
       y="564.60657" />
    <rect
       style="fill:#008080;stroke-width:0.261391"
       id="Territory_93"
       width="36.288761"
       height="17.245045"
       x="30.285818"
       y="573.42505" />
    <rect
       style="fill:#008080;stroke-width:0.261391"
       id="Territory_81"
       width="15.958961"
       height="29.073812"
       x="441.96503"
       y="470.15073" />
    <rect
       style="fill:#008080;stroke-width:0.261391"
       id="Territory_100"
       width="39.490711"
       height="48.207733"
       x="629.76196"
       y="434.8768" />
    <rect
       style="fill:#008080;stroke-width:0.261391"
       id="Territory_89"
       width="56.56778"
       height="28.611097"
       x="535.83813"
       y="471.3266" />
    <rect
       style="fill:#008080;stroke-width:0.261391"
       id="Territory_92"
       width="27.216574"
       height="42.720676"
       x="597.38672"
       y="456.43311" />
    <rect
       style="fill:#008080;stroke-width:0.261391"
       id="Territory_91"
       width="13.875115"
       height="27.827234"
       x="610.72815"
       y="410.77295" />
    <rect
       style="fill:#008080;stroke-width:0.261391"
       id="Territory_88"
       width="51.586971"
       height="29.786892"
       x="554.16046"
       y="409.79312" />
    <rect
       style="fill:#008080;stroke-width:0.261391"
       id="Territory_90"
       width="15.653976"
       height="28.415131"
       x="534.5929"
       y="410.57697" />
    <rect
       style="fill:#008080;stroke-width:0.112743"
       id="Territory_104"
       width="15.946506"
       height="18.544973"
       x="60.708168"
       y="296.31198" />
    <rect
       style="fill:#ffff00;stroke-width:0.112743"
       id="rect1219"
       width="23.281898"
       height="1.9521024"
       x="62.302822"
       y="266.05441" />
    <rect
       style="fill:#ffff00;stroke-width:0.112743"
       id="rect1221"
       width="15.308644"
       height="0.97605121"
       x="71.87072"
       y="302.819" />
    <rect
       style="fill:#ffff00;stroke-width:0.112743"
       id="rect1223"
       width="22.644039"
       height="1.9521024"
       x="63.259613"
       y="369.84119" />
    <rect
       style="fill:#ffff00;stroke-width:0.112743"
       id="rect1225"
       width="27.74692"
       height="1.9521024"
       x="59.751381"
       y="395.54388" />
    <rect
       style="fill:#ffff00;stroke-width:0.112743"
       id="rect1227"
       width="1.5946505"
       height="17.243572"
       x="43.167011"
       y="284.27405" />
    <rect
       style="fill:#ffff00;stroke-width:0.112744"
       id="rect1229-9-9-2-2"
       width="29.023016"
       height="2.928117"
       x="46.378201"
       y="544.5061"
       transform="matrix(0.9996663,-0.0258321,0.02482328,0.99969185,0,0)" />
    <rect
       transform="matrix(0.9996663,-0.0258321,0.02482328,0.99969185,0,0)"
       y="522.35669"
       x="45.652061"
       height="2.928117"
       width="29.023016"
       id="rect1229-9-9-2-2-5"
       style="fill:#ffff00;stroke-width:0.112744" />
    <rect
       style="fill:#ffff00;stroke-width:0.112744"
       id="rect1229-9-9-2-2-5-8"
       width="29.023016"
       height="2.928117"
       x="42.628403"
       y="579.8833"
       transform="matrix(0.9996663,-0.0258321,0.02482328,0.99969185,0,0)" />
    <rect
       style="fill:#ffff00;stroke-width:0.112743"
       id="rect1229-9-9-2-2-5-8-5-1-9-8"
       width="29.606842"
       height="2.8703752"
       x="-676.72473"
       y="82.620995"
       transform="matrix(-0.00846208,-0.9999642,0.99996122,-0.00880618,0,0)" />
    <rect
       transform="matrix(-0.00846208,-0.9999642,0.99996122,-0.00880618,0,0)"
       y="126.63011"
       x="-648.67822"
       height="2.8703752"
       width="29.606842"
       id="rect1229-9-9-2-2-5-8-5-1-9-8-6"
       style="fill:#ffff00;stroke-width:0.112743" />
    <rect
       y="408.35791"
       x="59.482201"
       height="1.9521024"
       width="27.746918"
       id="rect1225-2"
       style="fill:#ffff00;stroke-width:0.112743" />
    <rect
       style="fill:#ffff00;stroke-width:0.112743"
       id="rect1225-2-4"
       width="27.746918"
       height="1.9521024"
       x="56.895943"
       y="421.99454" />
    <rect
       y="433.51514"
       x="57.366169"
       height="1.9521024"
       width="27.746918"
       id="rect1225-2-4-3"
       style="fill:#ffff00;stroke-width:0.112743" />
    <rect
       style="fill:#ffff00;stroke-width:0.112743"
       id="rect1225-2-4-3-1"
       width="27.746918"
       height="1.9521024"
       x="58.54174"
       y="455.14566" />
    <rect
       y="483.12427"
       x="57.836399"
       height="1.9521024"
       width="27.746918"
       id="rect1225-2-4-3-1-7"
       style="fill:#ffff00;stroke-width:0.112743" />
    <rect
       transform="matrix(0.0258321,0.9996663,-0.99969185,0.02482328,0,0)"
       y="-142.2074"
       x="627.1358"
       height="2.9281168"
       width="29.023016"
       id="rect1229-9-9-2-2-1"
       style="fill:#ffff00;stroke-width:0.112744" />
    <rect
       style="fill:#ffff00;stroke-width:0.112744"
       id="rect1229-9-9-2-2-1-2"
       width="29.023016"
       height="2.9281168"
       x="627.19879"
       y="-160.53368"
       transform="matrix(0.0258321,0.9996663,-0.99969185,0.02482328,0,0)" />
    <rect
       transform="matrix(0.0258321,0.9996663,-0.99969185,0.02482328,0,0)"
       y="-181.60481"
       x="625.68372"
       height="2.9281168"
       width="29.023016"
       id="rect1229-9-9-2-2-1-2-0"
       style="fill:#ffff00;stroke-width:0.112744" />
    <rect
       style="fill:#ffff00;stroke-width:0.112744"
       id="rect1229-9-9-2-2-1-2-0-9"
       width="29.023016"
       height="2.9281168"
       x="623.86249"
       y="-193.3439"
       transform="matrix(0.0258321,0.9996663,-0.99969185,0.02482328,0,0)" />
    <rect
       transform="matrix(0.0258321,0.9996663,-0.99969185,0.02482328,0,0)"
       y="-212.11641"
       x="625.50464"
       height="2.9281168"
       width="29.023016"
       id="rect1229-9-9-2-2-1-2-0-9-1"
       style="fill:#ffff00;stroke-width:0.112744" />
    <rect
       style="fill:#ffff00;stroke-width:0.112744"
       id="rect1229-9-9-2-2-1-2-0-9-1-0"
       width="29.023016"
       height="2.9281168"
       x="623.42688"
       y="-232.63135"
       transform="matrix(0.0258321,0.9996663,-0.99969185,0.02482328,0,0)" />
    <rect
       transform="matrix(0.0258321,0.9996663,-0.99969185,0.02482328,0,0)"
       y="-253.42975"
       x="624.71521"
       height="2.9281168"
       width="29.023016"
       id="rect1229-9-9-2-2-1-2-0-9-1-0-3"
       style="fill:#ffff00;stroke-width:0.112744" />
    <rect
       style="fill:#ffff00;stroke-width:0.199401"
       id="rect1229-9-9-2-2-1-2-0-9-1-0-3-7"
       width="90.54055"
       height="2.9359889"
       x="518.7749"
       y="-310.51779"
       transform="matrix(0.00828055,0.99996572,-0.99701141,0.07725449,0,0)" />
    <rect
       transform="matrix(0.00517686,0.9999866,-0.99240633,0.12300277,0,0)"
       y="-351.10635"
       x="482.65884"
       height="2.9496129"
       width="144.8224"
       id="rect1229-9-9-2-2-1-2-0-9-1-0-3-7-9"
       style="fill:#ffff00;stroke-width:0.252772" />
    <rect
       style="fill:#ffff00;stroke-width:0.143979"
       id="rect1229-9-9-2-2-1-2-0-9-1-0-3-7-9-0"
       width="47.307076"
       height="2.9296122"
       x="-333.08209"
       y="-434.44946"
       transform="matrix(-0.99987441,0.01584807,-0.04044934,-0.99918159,0,0)" />
    <rect
       transform="matrix(-0.99987441,0.01584807,-0.04044934,-0.99918159,0,0)"
       y="-400.32687"
       x="-327.03638"
       height="2.9296122"
       width="47.307076"
       id="rect1229-9-9-2-2-1-2-0-9-1-0-3-7-9-0-5"
       style="fill:#ffff00;stroke-width:0.143979" />
    <rect
       style="fill:#ffff00;stroke-width:0.143979"
       id="rect1229-9-9-2-2-1-2-0-9-1-0-3-7-9-0-5-7"
       width="47.307076"
       height="2.9296122"
       x="-325.31253"
       y="-378.82175"
       transform="matrix(-0.99987441,0.01584807,-0.04044934,-0.99918159,0,0)" />
    <rect
       transform="matrix(-0.99987441,0.01584807,-0.04044934,-0.99918159,0,0)"
       y="-354.46237"
       x="-329.49152"
       height="2.9296122"
       width="47.307076"
       id="rect1229-9-9-2-2-1-2-0-9-1-0-3-7-9-0-5-7-7"
       style="fill:#ffff00;stroke-width:0.143979" />
    <rect
       style="fill:#ffff00;stroke-width:0.143979"
       id="rect1229-9-9-2-2-1-2-0-9-1-0-3-7-9-0-5-7-7-9"
       width="47.307076"
       height="2.9296122"
       x="-331.58621"
       y="-337.12927"
       transform="matrix(-0.99987441,0.01584807,-0.04044934,-0.99918159,0,0)" />
    <rect
       transform="matrix(-0.99987441,0.01584807,-0.04044934,-0.99918159,0,0)"
       y="-314.86154"
       x="-333.76602"
       height="2.9296122"
       width="47.307076"
       id="rect1229-9-9-2-2-1-2-0-9-1-0-3-7-9-0-5-7-7-9-8"
       style="fill:#ffff00;stroke-width:0.143979" />
    <rect
       style="fill:#ffff00;stroke-width:0.143979"
       id="rect1229-9-9-2-2-1-2-0-9-1-0-3-7-9-0-5-7-7-9-8-8"
       width="47.307076"
       height="2.9296122"
       x="-336.79175"
       y="-288.09381"
       transform="matrix(-0.99987441,0.01584807,-0.04044934,-0.99918159,0,0)" />
    <rect
       transform="matrix(-0.01584769,-0.99987442,0.99918155,-0.0404503,0,0)"
       y="293.66266"
       x="-292.37698"
       height="2.9296055"
       width="47.30809"
       id="rect1229-9-9-2-2-1-2-0-9-1-0-3-7-9-0-5-7-7-9-8-8-6"
       style="fill:#ffff00;stroke-width:0.14398" />
    <rect
       style="fill:#ffff00;stroke-width:0.14398"
       id="rect1229-9-9-2-2-1-2-0-9-1-0-3-7-9-0-5-7-7-9-8-8-6-1"
       width="47.30809"
       height="2.9296055"
       x="-293.70221"
       y="274.26721"
       transform="matrix(-0.01584769,-0.99987442,0.99918155,-0.0404503,0,0)" />
    <rect
       transform="matrix(-0.01584769,-0.99987442,0.99918155,-0.0404503,0,0)"
       y="255.67873"
       x="-293.65564"
       height="2.9296055"
       width="47.30809"
       id="rect1229-9-9-2-2-1-2-0-9-1-0-3-7-9-0-5-7-7-9-8-8-6-1-9"
       style="fill:#ffff00;stroke-width:0.14398" />
    <rect
       transform="matrix(-0.01584769,-0.99987442,0.99918155,-0.0404503,0,0)"
       y="225.20007"
       x="-298.05917"
       height="2.9296055"
       width="47.30809"
       id="rect1229-9-9-2-2-1-2-0-9-1-0-3-7-9-0-5-7-7-9-8-8-6-1-9-9-8"
       style="fill:#ffff00;stroke-width:0.14398" />
    <rect
       transform="matrix(-0.01584769,-0.99987442,0.99918155,-0.0404503,0,0)"
       y="191.00751"
       x="-292.92053"
       height="2.9296055"
       width="47.30809"
       id="rect1229-9-9-2-2-1-2-0-9-1-0-3-7-9-0-5-7-7-9-8-8-6-1-9-9-8-3-0"
       style="fill:#ffff00;stroke-width:0.14398" />
    <rect
       style="fill:#ffff00;stroke-width:0.261405"
       id="rect1229-9-9-2-2-1-2-0-9-1-0-3-7-9-0-5-7-7-9-8-8-6-1-9-9-8-3-0-5"
       width="154.71721"
       height="2.9527578"
       x="-450.25317"
       y="165.0891"
       transform="matrix(-0.00484577,-0.99998826,0.99134704,-0.13126705,0,0)" />
    <rect
       transform="matrix(-0.02012299,-0.99979751,0.99949222,-0.03186371,0,0)"
       y="377.13174"
       x="-492.45093"
       height="2.9286945"
       width="37.257046"
       id="rect1229-9-9-2-2-1-2-0-9-1-0-3-7-9-0-5-7-7-9-8-8-6-1-9-9-8-3-0-5-9"
       style="fill:#ffff00;stroke-width:0.127753" />
    <rect
       style="fill:#ffff00;stroke-width:0.118079"
       id="rect1229-9-9-2-2-1-2-0-9-1-0-3-7-9-0-5-7-7-9-8-8-6-1-9-9-8-3-0-5-9-4"
       width="31.832212"
       height="2.928293"
       x="-484.57376"
       y="402.38916"
       transform="matrix(-0.02355237,-0.9997226,0.99962931,-0.02722587,0,0)" />
    <rect
       transform="matrix(-0.02355237,-0.9997226,0.99962931,-0.02722587,0,0)"
       y="436.79764"
       x="-491.62552"
       height="2.928293"
       width="31.832212"
       id="rect1229-9-9-2-2-1-2-0-9-1-0-3-7-9-0-5-7-7-9-8-8-6-1-9-9-8-3-0-5-9-4-8"
       style="fill:#ffff00;stroke-width:0.118079" />
    <rect
       style="fill:#ffff00;stroke-width:0.118079"
       id="rect1229-9-9-2-2-1-2-0-9-1-0-3-7-9-0-5-7-7-9-8-8-6-1-9-9-8-3-0-5-9-4-8-9"
       width="31.832212"
       height="2.928293"
       x="-492.66525"
       y="457.70605"
       transform="matrix(-0.02355237,-0.9997226,0.99962931,-0.02722587,0,0)" />
    <rect
       transform="matrix(-0.02355237,-0.9997226,0.99962931,-0.02722587,0,0)"
       y="474.01315"
       x="-489.3465"
       height="2.928293"
       width="31.832212"
       id="rect1229-9-9-2-2-1-2-0-9-1-0-3-7-9-0-5-7-7-9-8-8-6-1-9-9-8-3-0-5-9-4-8-9-3"
       style="fill:#ffff00;stroke-width:0.118079" />
    <rect
       style="fill:#ffff00;stroke-width:0.151642"
       id="rect1229-9-9-2-2-1-2-0-9-1-0-3-7-9-0-5-7-7-9-8-8-6-1-9-9-8-3-0-5-9-4-8-9-3-3"
       width="52.467091"
       height="2.9301565"
       x="-435.15649"
       y="413.02292"
       transform="matrix(-0.01428941,-0.9998979,0.99899355,-0.04485406,0,0)" />
    <rect
       transform="matrix(-0.01428941,-0.9998979,0.99899355,-0.04485406,0,0)"
       y="442.77942"
       x="-378.64728"
       height="2.9301565"
       width="52.467091"
       id="rect1229-9-9-2-2-1-2-0-9-1-0-3-7-9-0-5-7-7-9-8-8-6-1-9-9-8-3-0-5-9-4-8-9-3-3-5"
       style="fill:#ffff00;stroke-width:0.151642" />
    <rect
       style="fill:#ffff00;stroke-width:0.151642"
       id="rect1229-9-9-2-2-1-2-0-9-1-0-3-7-9-0-5-7-7-9-8-8-6-1-9-9-8-3-0-5-9-4-8-9-3-3-5-4"
       width="52.467091"
       height="2.9301565"
       x="-382.0849"
       y="503.68622"
       transform="matrix(-0.01428941,-0.9998979,0.99899355,-0.04485406,0,0)" />
    <rect
       transform="matrix(-0.01428941,-0.9998979,0.99899355,-0.04485406,0,0)"
       y="536.25745"
       x="-507.22876"
       height="2.9301565"
       width="52.467091"
       id="rect1229-9-9-2-2-1-2-0-9-1-0-3-7-9-0-5-7-7-9-8-8-6-1-9-9-8-3-0-5-9-4-8-9-3-3-5-4-6"
       style="fill:#ffff00;stroke-width:0.151642" />
    <rect
       style="fill:#ffff00;stroke-width:0.151642"
       id="rect1229-9-9-2-2-1-2-0-9-1-0-3-7-9-0-5-7-7-9-8-8-6-1-9-9-8-3-0-5-9-4-8-9-3-3-5-4-6-3"
       width="52.467091"
       height="2.9301565"
       x="-508.85645"
       y="567.30048"
       transform="matrix(-0.01428941,-0.9998979,0.99899355,-0.04485406,0,0)" />
    <rect
       transform="matrix(-0.01428941,-0.9998979,0.99899355,-0.04485406,0,0)"
       y="596.04199"
       x="-506.85382"
       height="2.9301565"
       width="52.467091"
       id="rect1229-9-9-2-2-1-2-0-9-1-0-3-7-9-0-5-7-7-9-8-8-6-1-9-9-8-3-0-5-9-4-8-9-3-3-5-4-6-3-1"
       style="fill:#ffff00;stroke-width:0.151642" />
    <rect
       style="fill:#ffff00;stroke-width:0.151642"
       id="rect1229-9-9-2-2-1-2-0-9-1-0-3-7-9-0-5-7-7-9-8-8-6-1-9-9-8-3-0-5-9-4-8-9-3-3-5-4-6-3-1-9"
       width="52.467091"
       height="2.9301565"
       x="-506.05585"
       y="609.7038"
       transform="matrix(-0.01428941,-0.9998979,0.99899355,-0.04485406,0,0)" />
    <rect
       transform="matrix(0.9996663,-0.0258321,0.02482328,0.99969185,0,0)"
       y="603.1106"
       x="45.979061"
       height="2.9281168"
       width="29.023016"
       id="rect1229-9-9-2-2-5-8-2"
       style="fill:#ffff00;stroke-width:0.112744" />
    <rect
       style="fill:#ffff00;stroke-width:0.19288"
       id="rect1229-9-9-2-2-5-8-2-2"
       width="84.746696"
       height="2.9349031"
       x="-3.3215799"
       y="704.71924"
       transform="matrix(0.99996087,-0.00884675,0.07233723,0.99738023,0,0)" />
    <rect
       transform="matrix(-0.01071425,-0.9999426,0.99997581,-0.00695507,0,0)"
       y="66.9748"
       x="-705.86896"
       height="2.8703334"
       width="23.383389"
       id="rect1229-9-9-2-2-5-8-5-1-9-8-4"
       style="fill:#ffff00;stroke-width:0.100195" />
    <rect
       style="fill:#ffff00;stroke-width:0.113844"
       id="rect1229-9-9-2-2-5-8-5-1-9-8-4-7"
       width="30.187727"
       height="2.8703797"
       x="-705.68628"
       y="40.798428"
       transform="matrix(-0.00829925,-0.99996556,0.99995969,-0.00897898,0,0)" />
    <rect
       y="351.00787"
       x="63.168415"
       height="1.9521024"
       width="22.644039"
       id="rect1223-6"
       style="fill:#ffff00;stroke-width:0.112743" />
    <rect
       transform="scale(1,-1)"
       style="fill:#ffff00;stroke-width:0.217807"
       id="rect1225-2-4-3-1-7-4"
       width="103.55733"
       height="1.9521024"
       x="234.17288"
       y="-516.35388" />
    <rect
       transform="matrix(-0.00611964,-0.99998127,0.99454826,-0.10427731,0,0)"
       y="109.51193"
       x="-660.08014"
       height="2.9432533"
       width="122.51108"
       id="rect1229-9-9-2-2-1-2-0-9-1-0-3-7-9-0-5-7-7-9-8-8-6-1-9-9-8-3-0-5-6"
       style="fill:#ffff00;stroke-width:0.232238" />
    <rect
       style="fill:#ffff00;stroke-width:0.142747"
       id="rect1225-2-4-3-1-7-4-7-2"
       width="44.480778"
       height="1.9521024"
       x="114.49594"
       y="525.70679" />
    <rect
       transform="matrix(-0.00254294,-0.99999677,0.96960963,-0.24465724,0,0)"
       y="89.622932"
       x="-647.46625"
       height="3.0189548"
       width="294.8262"
       id="rect1229-9-9-2-2-1-2-0-9-1-0-3-7-9-0-5-7-7-9-8-8-6-1-9-9-8-3-0-5-5"
       style="fill:#ffff00;stroke-width:0.364875" />
    <rect
       style="fill:#ffff00;stroke-width:0.312941"
       id="rect1229-9-9-2-2-1-2-0-9-1-0-3-7-9-0-5-7-7-9-8-8-6-1-9-9-8-3-0-5-5-7"
       width="219.81364"
       height="2.9785562"
       x="-589.31537"
       y="36.093704"
       transform="matrix(-0.00341073,-0.99999418,0.98276059,-0.18488272,0,0)" />
    <rect
       transform="matrix(-0.00460017,-0.99998942,0.99041197,-0.13814529,0,0)"
       y="299.55109"
       x="-488.04135"
       height="2.9555454"
       width="162.97775"
       id="rect1229-9-9-2-2-1-2-0-9-1-0-3-7-9-0-5-7-7-9-8-8-6-1-9-9-8-3-0-5-5-7-4"
       style="fill:#ffff00;stroke-width:0.26842" />
    <rect
       transform="matrix(-0.99997345,0.00728691,-0.08771342,-0.99614575,0,0)"
       y="-296.92731"
       x="-252.60352"
       height="2.9385405"
       width="102.8867"
       id="rect1229-9-9-2-2-1-2-0-9-1-0-3-7-9-0-5-7-7-9-8-8-8"
       style="fill:#ffff00;stroke-width:0.212655" />
    <rect
       style="fill:#ffff00;stroke-width:0.274778"
       id="rect1229-9-9-2-2-1-2-0-9-1-0-3-7-9-0-5-7-7-9-8-8-8-0"
       width="170.63364"
       height="2.9582629"
       x="-310.02847"
       y="-236.88934"
       transform="matrix(-0.99999035,0.00439378,-0.14450195,-0.98950452,0,0)" />
    <rect
       transform="matrix(-0.99998433,0.00559736,-0.11388669,-0.99349374,0,0)"
       y="-612.63037"
       x="-191.5885"
       height="2.9463842"
       width="133.94273"
       id="rect1229-9-9-2-2-1-2-0-9-1-0-3-7-9-0-5-7-7-9-8-8-8-0-5"
       style="fill:#ffff00;stroke-width:0.242961" />
    <rect
       style="fill:#ffff00;stroke-width:0.313744"
       id="rect1229-9-9-2-2-1-2-0-9-1-0-3-7-9-0-5-7-7-9-8-8-8-0-5-3"
       width="220.90437"
       height="2.9790688"
       x="-198.09407"
       y="-660.88049"
       transform="matrix(-0.99999424,0.00339389,-0.18576814,-0.98259361,0,0)" />
    <rect
       transform="matrix(-0.99999655,0.00262823,-0.23717078,-0.97146797,0,0)"
       y="-495.43326"
       x="-518.14081"
       height="3.0131862"
       width="285.25858"
       id="rect1229-9-9-2-2-1-2-0-9-1-0-3-7-9-0-5-7-7-9-8-8-8-0-5-3-1"
       style="fill:#ffff00;stroke-width:0.358561" />
    <rect
       style="fill:#ffff00;stroke-width:0.332667"
       id="rect1229-9-9-2-2-1-2-0-9-1-0-3-7-9-0-5-7-7-9-8-8-8-0-5-3-1-1"
       width="247.27916"
       height="2.9920483"
       x="-544.229"
       y="-450.00122"
       transform="matrix(-0.9999954,0.0030319,-0.20704605,-0.9783312,0,0)" />
    <rect
       style="fill:#ffff00;stroke-width:0.213448"
       id="rect1223-6-7"
       width="81.163193"
       height="1.9521024"
       x="6.4854035"
       y="331.1279" />
    <rect
       transform="matrix(-0.00522321,-0.99998636,0.99253904,-0.12192728,0,0)"
       y="4.7885051"
       x="-331.71628"
       height="2.9492116"
       width="143.53664"
       id="rect1229-9-9-2-2-1-2-0-9-1-0-3-7-9-0-5-7-7-9-8-8-6-1-9-9-8-3-0-5-5-7-3"
       style="fill:#ffff00;stroke-width:0.251632" />
    <rect
       style="fill:#008080;stroke-width:0.183717"
       id="Territory_109"
       width="29.004122"
       height="18.1038"
       x="72.800362"
       y="667.25433" />
    <rect
       style="fill:#ffff00;stroke-width:0.14398"
       id="rect1229-9-9-2-2-1-2-0-9-1-0-3-7-9-0-5-7-7-9-8-8-6-4"
       width="47.30809"
       height="2.9296055"
       x="-304.59073"
       y="339.98044"
       transform="matrix(-0.01584769,-0.99987442,0.99918155,-0.0404503,0,0)" />
    <rect
       transform="matrix(-0.00807063,-0.99996743,0.99685464,-0.07925163,0,0)"
       y="333.95956"
       x="-421.52963"
       height="2.9364438"
       width="92.895363"
       id="rect1229-9-9-2-2-1-2-0-9-1-0-3-7-9-0-5-7-7-9-8-8-6-4-9"
       style="fill:#ffff00;stroke-width:0.201994" />
    <rect
       y="203.13875"
       x="377.12329"
       height="24.451885"
       width="23.057419"
       id="BonusLink_Executive"
       style="fill:#0000ff;fill-rule:evenodd;stroke-width:0.0897196" />
    <rect
       y="290.99081"
       x="549.6972"
       height="26.883707"
       width="30.942942"
       id="BonusLink_Benches"
       style="fill:#0000ff;fill-rule:evenodd;stroke-width:0.108227" />
    <rect
       y="639.65222"
       x="0.044988483"
       height="25.270138"
       width="23.275129"
       id="BonusLink_CINNLower"
       style="fill:#0000ff;fill-rule:evenodd;stroke-width:0.0645611" />
    <rect
       y="362.59644"
       x="0.47404212"
       height="19.576664"
       width="19.214451"
       id="BonusLink_CINNUpper"
       style="fill:#0000ff;fill-rule:evenodd;stroke-width:0.05587"
       inkscape:label="University_of_Reading">
      <title
         id="title386">University_of_Reading</title>
    </rect>
    <rect
       y="379.71707"
       x="197.50609"
       height="21.280117"
       width="27.26515"
       id="BonusLink_Croquet"
       style="fill:#0000ff;fill-rule:evenodd;stroke-width:0.16458" />
    <rect
       y="209.47702"
       x="80.913513"
       height="26.061506"
       width="22.610121"
       id="BonusLink_MRISuite"
       style="fill:#0000ff;fill-rule:evenodd;stroke-width:0.11243" />
    <rect
       y="376.01935"
       x="263.63229"
       height="25.935143"
       width="24.605135"
       id="BonusLink_Central"
       style="fill:#0000ff;fill-rule:evenodd;stroke-width:0.16458" />
    <rect
       y="688.43292"
       x="148.11752"
       height="19.950109"
       width="18.6201"
       id="BonusLink_SLTLeft"
       style="fill:#0000ff;fill-rule:evenodd;stroke-width:0.112243" />
    <rect
       y="705.56885"
       x="334.49683"
       height="28.595154"
       width="23.275127"
       id="BonusLink_G37PCroometal"
       style="fill:#0000ff;fill-rule:evenodd;stroke-width:0.16458" />
    <rect
       y="510.72278"
       x="524.02289"
       height="23.94013"
       width="25.270138"
       id="BonusLink_Vision"
       style="fill:#0000ff;fill-rule:evenodd;stroke-width:0.16458" />
    <rect
       y="512.71783"
       x="401.6622"
       height="25.935143"
       width="27.930153"
       id="BonusLink_Reception"
       style="fill:#0000ff;fill-rule:evenodd;stroke-width:0.16458" />
    <rect
       y="278.63651"
       x="133.66573"
       height="22.422501"
       width="23.273628"
       id="BonusLink_UpperLeft"
       style="fill:#0000ff;fill-rule:evenodd;stroke-width:0.137569" />
    <rect
       y="-541.95648"
       x="311.9783"
       height="1.9521024"
       width="39.71698"
       id="rect1225-2-4-3-1-7-4-0"
       style="fill:#ffff00;stroke-width:0.134887"
       transform="scale(1,-1)" />
    <rect
       style="fill:#ffff00;stroke-width:0.136421"
       id="rect1229-9-9-2-2-5-8-5-1-9-8-4-9"
       width="43.34626"
       height="2.8705025"
       x="-704.96674"
       y="125.63168"
       transform="matrix(-0.00577986,-0.9999833,0.99991689,-0.01289252,0,0)" />
    <rect
       transform="matrix(0.99998748,-0.00500448,0.12717385,0.99188044,0,0)"
       y="189.03651"
       x="-18.30505"
       height="2.9511766"
       width="149.81268"
       id="rect1229-9-9-2-2-5-8-2-2-9"
       style="fill:#ffff00;stroke-width:0.257159" />
    <rect
       style="fill:#ffff00;stroke-width:0.162253"
       id="rect1229-9-9-2-2-1-2-0-9-1-0-3-7-9-0-5-7-7-9-8-8-6-1-9-9-8-3-0-5-5-7-3-8"
       width="60.04784"
       height="2.9310699"
       x="-254.77477"
       y="153.31728"
       transform="matrix(-0.01248541,-0.99992205,0.99868226,-0.05132008,0,0)" />
    <rect
       style="fill:#ffff00;stroke-width:0.195257"
       id="rect1229-9-9-2-2-1-2-0-9-1-0-3-7-9-0-5-7-7-9-8-8-8-4"
       width="86.836067"
       height="2.9352868"
       x="-615.06335"
       y="-364.77594"
       transform="matrix(-0.99996273,0.00863382,-0.07411113,-0.99724999,0,0)" />
    <rect
       transform="matrix(-0.00870784,-0.99996209,0.99729636,-0.07348444,0,0)"
       y="638.22662"
       x="-489.42856"
       height="2.9351432"
       width="86.097626"
       id="rect1229-9-9-2-2-1-2-0-9-1-0-3-7-9-0-5-7-7-9-8-8-6-4-7"
       style="fill:#ffff00;stroke-width:0.194419" />
    <rect
       transform="matrix(-0.99998175,0.00604142,-0.10561268,-0.99440734,0,0)"
       y="-249.64014"
       x="-444.75613"
       height="2.9436772"
       width="124.09783"
       id="rect1229-9-9-2-2-1-2-0-9-1-0-3-7-9-0-5-7-7-9-8-8-8-0-9"
       style="fill:#ffff00;stroke-width:0.233754" />
    <rect
       style="fill:#ffff00;stroke-width:0.151642"
       id="rect1229-9-9-2-2-1-2-0-9-1-0-3-7-9-0-5-7-7-9-8-8-6-1-9-9-8-3-0-5-9-4-8-9-3-3-5-1"
       width="52.467091"
       height="2.9301565"
       x="-319.03296"
       y="464.84476"
       transform="matrix(-0.01428941,-0.9998979,0.99899355,-0.04485406,0,0)" />
    <rect
       y="285.57544"
       x="70.27607"
       height="17.243572"
       width="1.5946505"
       id="rect1227-3"
       style="fill:#ffff00;stroke-width:0.112743" />
    <rect
       y="307.40866"
       x="48.822498"
       height="0.97605121"
       width="15.308644"
       id="rect1221-0"
       style="fill:#ffff00;stroke-width:0.112743" />
    <rect
       style="fill:#0000ff;fill-rule:evenodd;stroke-width:0.0791302"
       id="BonusLink_CINNLower-0"
       width="35.910198"
       height="24.605135"
       x="396.7865"
       y="636.61285" />
    <rect
       style="fill:#0000ff;fill-rule:evenodd;stroke-width:0.0645611"
       id="BonusLink_CINNMiddle"
       width="23.275129"
       height="25.270138"
       x="-3.3752346"
       y="544.53174" />
    <rect
       style="fill:#0000ff;fill-rule:evenodd;stroke-width:0.16458"
       id="BonusLink_RightOffices"
       width="25.270138"
       height="23.94013"
       x="611.80334"
       y="514.04779" />
    <rect
       style="fill:#0000ff;fill-rule:evenodd;stroke-width:0.112243"
       id="BonusLink_SLTMiddle"
       width="18.6201"
       height="19.950109"
       x="204.3634"
       y="688.37775" />
    <rect
       y="689.23206"
       x="262.73297"
       height="19.950109"
       width="18.6201"
       id="BonusLink_SLTRight"
       style="fill:#0000ff;fill-rule:evenodd;stroke-width:0.112243" />
    <rect
       style="fill:#0000ff;fill-rule:evenodd;stroke-width:0.0897196"
       id="BonusLink_UpperMiddle"
       width="23.057419"
       height="24.451885"
       x="293.64691"
       y="194.4319" />
  </g>
</svg>
