<?xml version="1.0" encoding="UTF-8" standalone="no"?>
<svg
   xmlns:dc="http://purl.org/dc/elements/1.1/"
   xmlns:cc="http://creativecommons.org/ns#"
   xmlns:rdf="http://www.w3.org/1999/02/22-rdf-syntax-ns#"
   xmlns:svg="http://www.w3.org/2000/svg"
   xmlns="http://www.w3.org/2000/svg"
   xmlns:sodipodi="http://sodipodi.sourceforge.net/DTD/sodipodi-0.dtd"
   xmlns:inkscape="http://www.inkscape.org/namespaces/inkscape"
   sodipodi:docname="SPCLS_ground_Floor.svg"
   inkscape:version="1.0 (4035a4fb49, 2020-05-01)"
   id="svg8"
   version="1.1"
   viewBox="0 0 148.122 148.122"
   height="900"
   width="900">
  <defs
     id="defs2" />
  <sodipodi:namedview
     scale-x="0.16458"
     width="209mm"
     units="px"
     inkscape:window-maximized="1"
     inkscape:window-y="-8"
     inkscape:window-x="-8"
     inkscape:window-height="1017"
     inkscape:window-width="1920"
     showgrid="false"
     inkscape:document-rotation="0"
     inkscape:current-layer="layer1"
     inkscape:document-units="px"
     inkscape:cy="2137.823"
     inkscape:cx="3472.3412"
     inkscape:zoom="0.9899495"
     inkscape:pageshadow="2"
     inkscape:pageopacity="0"
     borderopacity="1.0"
     bordercolor="#666666"
     pagecolor="#000000"
     id="base" />
  <metadata
     id="metadata5">
    <rdf:RDF>
      <cc:Work
         rdf:about="">
        <dc:format>image/svg+xml</dc:format>
        <dc:type
           rdf:resource="http://purl.org/dc/dcmitype/StillImage" />
        <dc:title />
      </cc:Work>
    </rdf:RDF>
  </metadata>
  <g
     id="layer1"
     inkscape:groupmode="layer"
     inkscape:label="Layer 1">
    <rect
       inkscape:label="StaffRoom"
       y="408.30823"
       x="404.5123"
       height="46.058178"
       width="57.237938"
       id="Territory_1"
       style="fill:#008080;stroke-width:1.03883" />
    <rect
       inkscape:label="Reception"
       y="461.63873"
       x="370.68298"
       height="37.977798"
       width="69.503204"
       id="Territory_11"
       style="fill:#008080;stroke-width:1.03883" />
    <rect
       inkscape:label="EmmasDesk"
       y="435.78152"
       x="369.07925"
       height="18.584879"
       width="29.169292"
       id="Territory_3"
       style="fill:#008080;stroke-width:0.94255" />
    <rect
       inkscape:label="StaffRoomKitchen"
       y="410.53033"
       x="463.59006"
       height="43.836071"
       width="13.11701"
       id="Territory_5"
       style="fill:#008080;stroke-width:1.03883" />
    <rect
       style="fill:#008080;stroke-width:1.03883"
       id="Territory_6"
       width="45.994766"
       height="39.593872"
       x="32.806385"
       y="248.72069"
       inkscape:label="MRIMachine" />
    <rect
       style="fill:#008080;stroke-width:1.28888"
       id="Territory_7"
       width="21.464226"
       height="110.70125"
       x="80.913513"
       y="247.50861"
       inkscape:label="MRIOuter" />
    <rect
       style="fill:#008080;stroke-width:1.03883"
       id="Territory_8"
       width="22.07748"
       height="23.837137"
       x="80.913513"
       y="360.47235"
       inkscape:label="MRI_Loo" />
    <rect
       style="fill:#008080;stroke-width:1.03883"
       id="Territory_9"
       width="58.600739"
       height="127.67003"
       x="304.68658"
       y="557.3913"
       inkscape:label="G37ComputerRoom" />
    <rect
       style="fill:#008080;stroke-width:1.03883"
       id="Territory_10"
       width="36.11441"
       height="82.015877"
       x="30.762177"
       y="432.14532"
       inkscape:label="CINNComputerRoom" />
    <rect
       style="fill:#008080;stroke-width:1.03883"
       id="Territory_12"
       width="70.184608"
       height="44.442101"
       x="181.69312"
       y="268.51764"
       inkscape:label="SeminarRoom" />
    <rect
       inkscape:label="bench_2"
       y="345.28128"
       x="388.83997"
       height="29.897413"
       width="68.140396"
       id="Territory_31"
       style="fill:#008080;stroke-width:1.03883" />
    <rect
       inkscape:label="bench_3"
       y="288.71857"
       x="437.2197"
       height="27.473299"
       width="89.945328"
       id="Territory_32"
       style="fill:#008080;stroke-width:1.03883" />
    <rect
       inkscape:label="bench_1"
       y="345.28128"
       x="493.09479"
       height="29.897413"
       width="80.405663"
       id="Territory_30"
       style="fill:#008080;stroke-width:1.03883" />
    <rect
       inkscape:label="Loos1"
       y="411.54031"
       x="291.3992"
       height="83.227921"
       width="22.486332"
       id="Territory_40"
       style="fill:#008080;stroke-width:1.03883" />
    <rect
       inkscape:label="cinn_loos"
       y="595.91107"
       x="80.26812"
       height="52.565979"
       width="24.091269"
       id="Territory_50"
       style="fill:#008080;stroke-width:1.03883" />
    <rect
       inkscape:label="north_stiarwell"
       y="295.10208"
       x="32.806385"
       height="27.054157"
       width="23.370462"
       id="Territory_51"
       style="fill:#008080;stroke-width:1.03883" />
    <rect
       inkscape:label="postgrad_relax"
       y="409.6676"
       x="478.61493"
       height="42.436291"
       width="52.622356"
       id="Territory_61"
       style="fill:#008080;stroke-width:1.03883" />
    <rect
       inkscape:label="vision_lab"
       y="470.20978"
       x="460.91019"
       height="28.568466"
       width="70.346504"
       id="Territory_60"
       style="fill:#008080;stroke-width:1.03883" />
    <rect
       inkscape:label="g10"
       y="515.47778"
       x="30.762177"
       height="54.324081"
       width="35.533001"
       id="Territory_53"
       style="fill:#008080;stroke-width:1.03883" />
    <rect
       inkscape:label="cinn_conference_room"
       y="346.22266"
       x="32.085587"
       height="56.565563"
       width="33.245953"
       id="Territory_54"
       style="fill:#008080;stroke-width:1.03883" />
    <rect
       inkscape:label="cinn_meeting_room"
       y="405.73752"
       x="30.762177"
       height="21.882795"
       width="35.472401"
       id="Territory_55"
       style="fill:#008080;stroke-width:0.905633" />
    <rect
       inkscape:label="exec_admin"
       y="227.30766"
       x="330.23926"
       height="37.977798"
       width="32.70739"
       id="Territory_71"
       style="fill:#008080;stroke-width:1.03883" />
    <rect
       inkscape:label="finance"
       y="269.81046"
       x="328.33133"
       height="41.209953"
       width="36.114403"
       id="Territory_70"
       style="fill:#008080;stroke-width:1.03883" />
    <rect
       inkscape:label="croquet_lawn"
       y="407.39914"
       x="147.08731"
       height="128.67271"
       width="94.096237"
       id="Territory_2"
       style="fill:#008080;stroke-width:0.64619" />
    <rect
       inkscape:label="Stairwell"
       y="409.5127"
       x="333.8201"
       height="51.028591"
       width="30.885828"
       id="Territory_34"
       style="fill:#008080;stroke-width:1.36518" />
    <rect
       inkscape:label="supply_room"
       y="534.28497"
       x="304.56726"
       height="17.415163"
       width="22.478407"
       id="Territory_41"
       style="fill:#008080;stroke-width:0.64619" />
    <rect
       inkscape:label="secret_admin"
       y="502.29794"
       x="332.14078"
       height="47.625145"
       width="30.870344"
       id="Territory_36"
       style="fill:#008080;stroke-width:0.64619" />
    <rect
       inkscape:label="cinn_first_aid"
       y="595.77112"
       x="54.607407"
       height="13.150228"
       width="12.887618"
       id="Territory_37"
       style="fill:#008080;stroke-width:0.64619" />
    <path
       id="Territory_14"
       d="m 29.930053,614.38205 v 70.54794 h 29.173325 l -0.711545,-41.54491 h -8.538538 l -0.712597,-27.48212 z"
       style="fill:#a02c2c;stroke:#000000;stroke-width:0.261391px;stroke-linecap:butt;stroke-linejoin:miter;stroke-opacity:1" />
    <rect
       y="363.93701"
       x="292.8457"
       height="38.017479"
       width="21.702105"
       id="Territory_13"
       style="fill:#008080;stroke-width:0.261391" />
    <rect
       y="339.59604"
       x="292.65942"
       height="18.845409"
       width="22.892775"
       id="Territory_62"
       style="fill:#008080;stroke-width:0.261391" />
    <rect
       y="340.42743"
       x="328.88538"
       height="17.736856"
       width="16.100414"
       id="Territory_64"
       style="fill:#008080;stroke-width:0.261391" />
    <rect
       y="363.98419"
       x="328.88538"
       height="18.845409"
       width="15.848842"
       id="Territory_65"
       style="fill:#008080;stroke-width:0.261391" />
    <rect
       y="388.92664"
       x="328.63379"
       height="14.411195"
       width="15.094136"
       id="Territory_66"
       style="fill:#008080;stroke-width:0.261391" />
    <rect
       y="314.31274"
       x="328.82941"
       height="21.893934"
       width="16.351988"
       id="Territory_63"
       style="fill:#008080;stroke-width:0.261391" />
    <rect
       y="303.84518"
       x="293.16257"
       height="32.148048"
       width="14.590998"
       id="Territory_59"
       style="fill:#008080;stroke-width:0.261391" />
    <rect
       y="271.41998"
       x="292.65942"
       height="26.051004"
       width="14.590998"
       id="Territory_56"
       style="fill:#008080;stroke-width:0.261391" />
    <rect
       y="225.13788"
       x="292.65942"
       height="27.436695"
       width="32.200825"
       id="Territory_49"
       style="fill:#008080;stroke-width:0.261391" />
    <rect
       y="269.75714"
       x="273.54016"
       height="42.402176"
       width="15.597273"
       id="Territory_58"
       style="fill:#008080;stroke-width:0.261391" />
    <rect
       y="269.62619"
       x="255.14815"
       height="41.424587"
       width="14.36694"
       id="Territory_57"
       style="fill:#008080;stroke-width:0.261391" />
    <rect
       y="225.41501"
       x="254.67249"
       height="28.268108"
       width="32.628979"
       id="Territory_47"
       style="fill:#008080;stroke-width:0.405104" />
    <rect
       y="224.30647"
       x="215.42778"
       height="28.822374"
       width="32.673607"
       id="Territory_45"
       style="fill:#008080;stroke-width:0.353534" />
    <rect
       y="224.5836"
       x="183.02084"
       height="28.545246"
       width="26.764194"
       id="Territory_43"
       style="fill:#008080;stroke-width:0.509784" />
    <path
       id="Territory_42"
       d="m 177.44085,304.67659 -29.68513,-59.03047 30.18827,-22.44821 z"
       style="fill:#a02c2c;stroke:#000000;stroke-width:0.261391px;stroke-linecap:butt;stroke-linejoin:miter;stroke-opacity:1" />
    <rect
       y="612.57727"
       x="289.64059"
       height="68.730309"
       width="13.584723"
       id="Territory_99"
       style="fill:#008080;stroke-width:0.261391" />
    <rect
       y="642.20929"
       x="267.76373"
       height="39.781178"
       width="18.855928"
       id="Territory_79"
       style="fill:#008080;stroke-width:0.261391" />
    <rect
       y="642.01331"
       x="243.21548"
       height="40.173111"
       width="19.567467"
       id="Territory_76"
       style="fill:#008080;stroke-width:0.261391" />
    <rect
       y="641.42542"
       x="217.95566"
       height="40.761013"
       width="20.634785"
       id="Territory_74"
       style="fill:#008080;stroke-width:0.261391" />
    <rect
       y="642.20929"
       x="191.8064"
       height="39.58522"
       width="20.456902"
       id="Territory_98"
       style="fill:#008080;stroke-width:0.261391" />
    <rect
       y="597.92084"
       x="256.02325"
       height="22.92807"
       width="12.807799"
       id="Territory_77"
       style="fill:#008080;stroke-width:0.261391" />
    <rect
       y="596.35315"
       x="237.16736"
       height="26.259497"
       width="13.341457"
       id="Territory_75"
       style="fill:#008080;stroke-width:0.261391" />
    <rect
       y="596.35315"
       x="205.68153"
       height="27.23933"
       width="26.682915"
       id="Territory_73"
       style="fill:#008080;stroke-width:0.261391" />
    <rect
       y="596.54913"
       x="181.31111"
       height="26.063532"
       width="19.033813"
       id="Territory_72"
       style="fill:#008080;stroke-width:0.261391" />
    <rect
       y="596.1571"
       x="162.09941"
       height="26.847399"
       width="14.58666"
       id="Territory_97"
       style="fill:#008080;stroke-width:0.261391" />
    <rect
       y="595.56927"
       x="143.2435"
       height="27.827234"
       width="15.120318"
       id="Territory_96"
       style="fill:#008080;stroke-width:0.261391" />
    <rect
       y="596.35315"
       x="121.54137"
       height="25.279665"
       width="18.67803"
       id="Territory_68"
       style="fill:#008080;stroke-width:0.261391" />
    <rect
       y="641.22949"
       x="147.69063"
       height="41.93681"
       width="29.351208"
       id="Territory_69"
       style="fill:#008080;stroke-width:0.261391" />
    <rect
       y="641.03351"
       x="122.60871"
       height="19.596642"
       width="21.702105"
       id="Territory_67"
       style="fill:#008080;stroke-width:0.261391" />
    <rect
       y="390.18848"
       x="79.738159"
       height="21.956247"
       width="23.608618"
       id="Territory_82"
       style="fill:#008080;stroke-width:0.261391" />
    <rect
       y="418.02371"
       x="79.026634"
       height="18.420835"
       width="25.031704"
       id="Territory_94"
       style="fill:#008080;stroke-width:0.261391" />
    <rect
       y="442.71545"
       x="76.536201"
       height="24.299828"
       width="26.099022"
       id="Territory_83"
       style="fill:#008080;stroke-width:0.261391" />
    <rect
       y="472.11044"
       x="76.536217"
       height="24.691767"
       width="26.327141"
       id="Territory_84"
       style="fill:#008080;stroke-width:0.261391" />
    <rect
       y="503.66107"
       x="77.959297"
       height="25.867567"
       width="23.658852"
       id="Territory_85"
       style="fill:#008080;stroke-width:0.261391" />
    <rect
       y="535.21161"
       x="79.560287"
       height="26.063532"
       width="21.524218"
       id="Territory_86"
       style="fill:#008080;stroke-width:0.261391" />
    <rect
       y="564.60657"
       x="79.560287"
       height="26.259497"
       width="21.524218"
       id="Territory_87"
       style="fill:#008080;stroke-width:0.261391" />
    <rect
       y="573.42505"
       x="30.285818"
       height="17.245045"
       width="36.288761"
       id="Territory_93"
       style="fill:#008080;stroke-width:0.261391" />
    <rect
       y="470.15073"
       x="441.96503"
       height="29.073812"
       width="15.958961"
       id="Territory_81"
       style="fill:#008080;stroke-width:0.261391" />
    <rect
       y="434.8768"
       x="629.76196"
       height="48.207733"
       width="39.490711"
       id="Territory_100"
       style="fill:#008080;stroke-width:0.261391" />
    <rect
       y="471.3266"
       x="535.83813"
       height="28.611097"
       width="56.56778"
       id="Territory_89"
       style="fill:#008080;stroke-width:0.261391" />
    <rect
       y="456.43311"
       x="597.38672"
       height="42.720676"
       width="27.216574"
       id="Territory_92"
       style="fill:#008080;stroke-width:0.261391" />
    <rect
       y="410.77295"
       x="610.72815"
       height="27.827234"
       width="13.875115"
       id="Territory_91"
       style="fill:#008080;stroke-width:0.261391" />
    <rect
       y="409.79312"
       x="554.16046"
       height="29.786892"
       width="51.586971"
       id="Territory_88"
       style="fill:#008080;stroke-width:0.261391" />
    <rect
       y="410.57697"
       x="534.5929"
       height="28.415131"
       width="15.653976"
       id="Territory_90"
       style="fill:#008080;stroke-width:0.261391" />
    <rect
       y="296.31198"
       x="60.708168"
       height="18.544973"
       width="15.946506"
       id="Territory_104"
       style="fill:#008080;stroke-width:0.112743" />
    <rect
       y="266.05441"
       x="62.302822"
       height="1.9521024"
       width="23.281898"
       id="rect1219"
       style="fill:#ffff00;stroke-width:0.112743" />
    <rect
       y="302.819"
       x="71.87072"
       height="0.97605121"
       width="15.308644"
       id="rect1221"
       style="fill:#ffff00;stroke-width:0.112743" />
    <rect
       y="369.84119"
       x="63.259613"
       height="1.9521024"
       width="22.644039"
       id="rect1223"
       style="fill:#ffff00;stroke-width:0.112743" />
    <rect
       y="395.54388"
       x="59.751381"
       height="1.9521024"
       width="27.74692"
       id="rect1225"
       style="fill:#ffff00;stroke-width:0.112743" />
    <rect
       y="284.27405"
       x="43.167011"
       height="17.243572"
       width="1.5946505"
       id="rect1227"
       style="fill:#ffff00;stroke-width:0.112743" />
    <rect
       transform="matrix(0.9996663,-0.0258321,0.02482328,0.99969185,0,0)"
       y="544.5061"
       x="46.378201"
       height="2.928117"
       width="29.023016"
       id="rect1229-9-9-2-2"
       style="fill:#ffff00;stroke-width:0.112744" />
    <rect
       style="fill:#ffff00;stroke-width:0.112744"
       id="rect1229-9-9-2-2-5"
       width="29.023016"
       height="2.928117"
       x="45.652061"
       y="522.35669"
       transform="matrix(0.9996663,-0.0258321,0.02482328,0.99969185,0,0)" />
    <rect
       transform="matrix(0.9996663,-0.0258321,0.02482328,0.99969185,0,0)"
       y="579.8833"
       x="42.628403"
       height="2.928117"
       width="29.023016"
       id="rect1229-9-9-2-2-5-8"
       style="fill:#ffff00;stroke-width:0.112744" />
    <rect
       transform="matrix(-0.00846208,-0.9999642,0.99996122,-0.00880618,0,0)"
       y="82.620995"
       x="-676.72473"
       height="2.8703752"
       width="29.606842"
       id="rect1229-9-9-2-2-5-8-5-1-9-8"
       style="fill:#ffff00;stroke-width:0.112743" />
    <rect
       style="fill:#ffff00;stroke-width:0.112743"
       id="rect1229-9-9-2-2-5-8-5-1-9-8-6"
       width="29.606842"
       height="2.8703752"
       x="-648.67822"
       y="126.63011"
       transform="matrix(-0.00846208,-0.9999642,0.99996122,-0.00880618,0,0)" />
    <rect
       style="fill:#ffff00;stroke-width:0.112743"
       id="rect1225-2"
       width="27.746918"
       height="1.9521024"
       x="59.482201"
       y="408.35791" />
    <rect
       y="421.99454"
       x="56.895943"
       height="1.9521024"
       width="27.746918"
       id="rect1225-2-4"
       style="fill:#ffff00;stroke-width:0.112743" />
    <rect
       style="fill:#ffff00;stroke-width:0.112743"
       id="rect1225-2-4-3"
       width="27.746918"
       height="1.9521024"
       x="57.366169"
       y="433.51514" />
    <rect
       y="455.14566"
       x="58.54174"
       height="1.9521024"
       width="27.746918"
       id="rect1225-2-4-3-1"
       style="fill:#ffff00;stroke-width:0.112743" />
    <rect
       style="fill:#ffff00;stroke-width:0.112743"
       id="rect1225-2-4-3-1-7"
       width="27.746918"
       height="1.9521024"
       x="57.836399"
       y="483.12427" />
    <rect
       style="fill:#ffff00;stroke-width:0.112744"
       id="rect1229-9-9-2-2-1"
       width="29.023016"
       height="2.9281168"
       x="627.1358"
       y="-142.2074"
       transform="matrix(0.0258321,0.9996663,-0.99969185,0.02482328,0,0)" />
    <rect
       transform="matrix(0.0258321,0.9996663,-0.99969185,0.02482328,0,0)"
       y="-160.53368"
       x="627.19879"
       height="2.9281168"
       width="29.023016"
       id="rect1229-9-9-2-2-1-2"
       style="fill:#ffff00;stroke-width:0.112744" />
    <rect
       style="fill:#ffff00;stroke-width:0.112744"
       id="rect1229-9-9-2-2-1-2-0"
       width="29.023016"
       height="2.9281168"
       x="625.68372"
       y="-181.60481"
       transform="matrix(0.0258321,0.9996663,-0.99969185,0.02482328,0,0)" />
    <rect
       transform="matrix(0.0258321,0.9996663,-0.99969185,0.02482328,0,0)"
       y="-193.3439"
       x="623.86249"
       height="2.9281168"
       width="29.023016"
       id="rect1229-9-9-2-2-1-2-0-9"
       style="fill:#ffff00;stroke-width:0.112744" />
    <rect
       style="fill:#ffff00;stroke-width:0.112744"
       id="rect1229-9-9-2-2-1-2-0-9-1"
       width="29.023016"
       height="2.9281168"
       x="625.50464"
       y="-212.11641"
       transform="matrix(0.0258321,0.9996663,-0.99969185,0.02482328,0,0)" />
    <rect
       transform="matrix(0.0258321,0.9996663,-0.99969185,0.02482328,0,0)"
       y="-232.63135"
       x="623.42688"
       height="2.9281168"
       width="29.023016"
       id="rect1229-9-9-2-2-1-2-0-9-1-0"
       style="fill:#ffff00;stroke-width:0.112744" />
    <rect
       style="fill:#ffff00;stroke-width:0.112744"
       id="rect1229-9-9-2-2-1-2-0-9-1-0-3"
       width="29.023016"
       height="2.9281168"
       x="624.71521"
       y="-253.42975"
       transform="matrix(0.0258321,0.9996663,-0.99969185,0.02482328,0,0)" />
    <rect
       transform="matrix(0.00828055,0.99996572,-0.99701141,0.07725449,0,0)"
       y="-310.51779"
       x="518.7749"
       height="2.9359889"
       width="90.54055"
       id="rect1229-9-9-2-2-1-2-0-9-1-0-3-7"
       style="fill:#ffff00;stroke-width:0.199401" />
    <rect
       style="fill:#ffff00;stroke-width:0.252772"
       id="rect1229-9-9-2-2-1-2-0-9-1-0-3-7-9"
       width="144.8224"
       height="2.9496129"
       x="482.65884"
       y="-351.10635"
       transform="matrix(0.00517686,0.9999866,-0.99240633,0.12300277,0,0)" />
    <rect
       transform="matrix(-0.99987441,0.01584807,-0.04044934,-0.99918159,0,0)"
       y="-434.44946"
       x="-333.08209"
       height="2.9296122"
       width="47.307076"
       id="rect1229-9-9-2-2-1-2-0-9-1-0-3-7-9-0"
       style="fill:#ffff00;stroke-width:0.143979" />
    <rect
       style="fill:#ffff00;stroke-width:0.143979"
       id="rect1229-9-9-2-2-1-2-0-9-1-0-3-7-9-0-5"
       width="47.307076"
       height="2.9296122"
       x="-327.03638"
       y="-400.32687"
       transform="matrix(-0.99987441,0.01584807,-0.04044934,-0.99918159,0,0)" />
    <rect
       transform="matrix(-0.99987441,0.01584807,-0.04044934,-0.99918159,0,0)"
       y="-378.82175"
       x="-325.31253"
       height="2.9296122"
       width="47.307076"
       id="rect1229-9-9-2-2-1-2-0-9-1-0-3-7-9-0-5-7"
       style="fill:#ffff00;stroke-width:0.143979" />
    <rect
       style="fill:#ffff00;stroke-width:0.143979"
       id="rect1229-9-9-2-2-1-2-0-9-1-0-3-7-9-0-5-7-7"
       width="47.307076"
       height="2.9296122"
       x="-329.49152"
       y="-354.46237"
       transform="matrix(-0.99987441,0.01584807,-0.04044934,-0.99918159,0,0)" />
    <rect
       transform="matrix(-0.99987441,0.01584807,-0.04044934,-0.99918159,0,0)"
       y="-337.12927"
       x="-331.58621"
       height="2.9296122"
       width="47.307076"
       id="rect1229-9-9-2-2-1-2-0-9-1-0-3-7-9-0-5-7-7-9"
       style="fill:#ffff00;stroke-width:0.143979" />
    <rect
       style="fill:#ffff00;stroke-width:0.143979"
       id="rect1229-9-9-2-2-1-2-0-9-1-0-3-7-9-0-5-7-7-9-8"
       width="47.307076"
       height="2.9296122"
       x="-333.76602"
       y="-314.86154"
       transform="matrix(-0.99987441,0.01584807,-0.04044934,-0.99918159,0,0)" />
    <rect
       transform="matrix(-0.99987441,0.01584807,-0.04044934,-0.99918159,0,0)"
       y="-288.09381"
       x="-336.79175"
       height="2.9296122"
       width="47.307076"
       id="rect1229-9-9-2-2-1-2-0-9-1-0-3-7-9-0-5-7-7-9-8-8"
       style="fill:#ffff00;stroke-width:0.143979" />
    <rect
       style="fill:#ffff00;stroke-width:0.14398"
       id="rect1229-9-9-2-2-1-2-0-9-1-0-3-7-9-0-5-7-7-9-8-8-6"
       width="47.30809"
       height="2.9296055"
       x="-292.37698"
       y="293.66266"
       transform="matrix(-0.01584769,-0.99987442,0.99918155,-0.0404503,0,0)" />
    <rect
       transform="matrix(-0.01584769,-0.99987442,0.99918155,-0.0404503,0,0)"
       y="274.26721"
       x="-293.70221"
       height="2.9296055"
       width="47.30809"
       id="rect1229-9-9-2-2-1-2-0-9-1-0-3-7-9-0-5-7-7-9-8-8-6-1"
       style="fill:#ffff00;stroke-width:0.14398" />
    <rect
       style="fill:#ffff00;stroke-width:0.14398"
       id="rect1229-9-9-2-2-1-2-0-9-1-0-3-7-9-0-5-7-7-9-8-8-6-1-9"
       width="47.30809"
       height="2.9296055"
       x="-293.65564"
       y="255.67873"
       transform="matrix(-0.01584769,-0.99987442,0.99918155,-0.0404503,0,0)" />
    <rect
       style="fill:#ffff00;stroke-width:0.14398"
       id="rect1229-9-9-2-2-1-2-0-9-1-0-3-7-9-0-5-7-7-9-8-8-6-1-9-9-8"
       width="47.30809"
       height="2.9296055"
       x="-298.05917"
       y="225.20007"
       transform="matrix(-0.01584769,-0.99987442,0.99918155,-0.0404503,0,0)" />
    <rect
       style="fill:#ffff00;stroke-width:0.14398"
       id="rect1229-9-9-2-2-1-2-0-9-1-0-3-7-9-0-5-7-7-9-8-8-6-1-9-9-8-3-0"
       width="47.30809"
       height="2.9296055"
       x="-292.92053"
       y="191.00751"
       transform="matrix(-0.01584769,-0.99987442,0.99918155,-0.0404503,0,0)" />
    <rect
       transform="matrix(-0.00484577,-0.99998826,0.99134704,-0.13126705,0,0)"
       y="165.0891"
       x="-450.25317"
       height="2.9527578"
       width="154.71721"
       id="rect1229-9-9-2-2-1-2-0-9-1-0-3-7-9-0-5-7-7-9-8-8-6-1-9-9-8-3-0-5"
       style="fill:#ffff00;stroke-width:0.261405" />
    <rect
       style="fill:#ffff00;stroke-width:0.127753"
       id="rect1229-9-9-2-2-1-2-0-9-1-0-3-7-9-0-5-7-7-9-8-8-6-1-9-9-8-3-0-5-9"
       width="37.257046"
       height="2.9286945"
       x="-492.45093"
       y="377.13174"
       transform="matrix(-0.02012299,-0.99979751,0.99949222,-0.03186371,0,0)" />
    <rect
       transform="matrix(-0.02355237,-0.9997226,0.99962931,-0.02722587,0,0)"
       y="402.38916"
       x="-484.57376"
       height="2.928293"
       width="31.832212"
       id="rect1229-9-9-2-2-1-2-0-9-1-0-3-7-9-0-5-7-7-9-8-8-6-1-9-9-8-3-0-5-9-4"
       style="fill:#ffff00;stroke-width:0.118079" />
    <rect
       style="fill:#ffff00;stroke-width:0.118079"
       id="rect1229-9-9-2-2-1-2-0-9-1-0-3-7-9-0-5-7-7-9-8-8-6-1-9-9-8-3-0-5-9-4-8"
       width="31.832212"
       height="2.928293"
       x="-491.62552"
       y="436.79764"
       transform="matrix(-0.02355237,-0.9997226,0.99962931,-0.02722587,0,0)" />
    <rect
       transform="matrix(-0.02355237,-0.9997226,0.99962931,-0.02722587,0,0)"
       y="457.70605"
       x="-492.66525"
       height="2.928293"
       width="31.832212"
       id="rect1229-9-9-2-2-1-2-0-9-1-0-3-7-9-0-5-7-7-9-8-8-6-1-9-9-8-3-0-5-9-4-8-9"
       style="fill:#ffff00;stroke-width:0.118079" />
    <rect
       style="fill:#ffff00;stroke-width:0.118079"
       id="rect1229-9-9-2-2-1-2-0-9-1-0-3-7-9-0-5-7-7-9-8-8-6-1-9-9-8-3-0-5-9-4-8-9-3"
       width="31.832212"
       height="2.928293"
       x="-489.3465"
       y="474.01315"
       transform="matrix(-0.02355237,-0.9997226,0.99962931,-0.02722587,0,0)" />
    <rect
       transform="matrix(-0.01428941,-0.9998979,0.99899355,-0.04485406,0,0)"
       y="413.02292"
       x="-435.15649"
       height="2.9301565"
       width="52.467091"
       id="rect1229-9-9-2-2-1-2-0-9-1-0-3-7-9-0-5-7-7-9-8-8-6-1-9-9-8-3-0-5-9-4-8-9-3-3"
       style="fill:#ffff00;stroke-width:0.151642" />
    <rect
       style="fill:#ffff00;stroke-width:0.151642"
       id="rect1229-9-9-2-2-1-2-0-9-1-0-3-7-9-0-5-7-7-9-8-8-6-1-9-9-8-3-0-5-9-4-8-9-3-3-5"
       width="52.467091"
       height="2.9301565"
       x="-378.64728"
       y="442.77942"
       transform="matrix(-0.01428941,-0.9998979,0.99899355,-0.04485406,0,0)" />
    <rect
       transform="matrix(-0.01428941,-0.9998979,0.99899355,-0.04485406,0,0)"
       y="503.68622"
       x="-382.0849"
       height="2.9301565"
       width="52.467091"
       id="rect1229-9-9-2-2-1-2-0-9-1-0-3-7-9-0-5-7-7-9-8-8-6-1-9-9-8-3-0-5-9-4-8-9-3-3-5-4"
       style="fill:#ffff00;stroke-width:0.151642" />
    <rect
       style="fill:#ffff00;stroke-width:0.151642"
       id="rect1229-9-9-2-2-1-2-0-9-1-0-3-7-9-0-5-7-7-9-8-8-6-1-9-9-8-3-0-5-9-4-8-9-3-3-5-4-6"
       width="52.467091"
       height="2.9301565"
       x="-507.22876"
       y="536.25745"
       transform="matrix(-0.01428941,-0.9998979,0.99899355,-0.04485406,0,0)" />
    <rect
       transform="matrix(-0.01428941,-0.9998979,0.99899355,-0.04485406,0,0)"
       y="567.30048"
       x="-508.85645"
       height="2.9301565"
       width="52.467091"
       id="rect1229-9-9-2-2-1-2-0-9-1-0-3-7-9-0-5-7-7-9-8-8-6-1-9-9-8-3-0-5-9-4-8-9-3-3-5-4-6-3"
       style="fill:#ffff00;stroke-width:0.151642" />
    <rect
       style="fill:#ffff00;stroke-width:0.151642"
       id="rect1229-9-9-2-2-1-2-0-9-1-0-3-7-9-0-5-7-7-9-8-8-6-1-9-9-8-3-0-5-9-4-8-9-3-3-5-4-6-3-1"
       width="52.467091"
       height="2.9301565"
       x="-506.85382"
       y="596.04199"
       transform="matrix(-0.01428941,-0.9998979,0.99899355,-0.04485406,0,0)" />
    <rect
       transform="matrix(-0.01428941,-0.9998979,0.99899355,-0.04485406,0,0)"
       y="609.7038"
       x="-506.05585"
       height="2.9301565"
       width="52.467091"
       id="rect1229-9-9-2-2-1-2-0-9-1-0-3-7-9-0-5-7-7-9-8-8-6-1-9-9-8-3-0-5-9-4-8-9-3-3-5-4-6-3-1-9"
       style="fill:#ffff00;stroke-width:0.151642" />
    <rect
       style="fill:#ffff00;stroke-width:0.112744"
       id="rect1229-9-9-2-2-5-8-2"
       width="29.023016"
       height="2.9281168"
       x="45.979061"
       y="603.1106"
       transform="matrix(0.9996663,-0.0258321,0.02482328,0.99969185,0,0)" />
    <rect
       transform="matrix(0.99996087,-0.00884675,0.07233723,0.99738023,0,0)"
       y="704.71924"
       x="-3.3215799"
       height="2.9349031"
       width="84.746696"
       id="rect1229-9-9-2-2-5-8-2-2"
       style="fill:#ffff00;stroke-width:0.19288" />
    <rect
       style="fill:#ffff00;stroke-width:0.100195"
       id="rect1229-9-9-2-2-5-8-5-1-9-8-4"
       width="23.383389"
       height="2.8703334"
       x="-705.86896"
       y="66.9748"
       transform="matrix(-0.01071425,-0.9999426,0.99997581,-0.00695507,0,0)" />
    <rect
       transform="matrix(-0.00829925,-0.99996556,0.99995969,-0.00897898,0,0)"
       y="40.798428"
       x="-705.68628"
       height="2.8703797"
       width="30.187727"
       id="rect1229-9-9-2-2-5-8-5-1-9-8-4-7"
       style="fill:#ffff00;stroke-width:0.113844" />
    <rect
       style="fill:#ffff00;stroke-width:0.112743"
       id="rect1223-6"
       width="22.644039"
       height="1.9521024"
       x="63.168415"
       y="351.00787" />
    <rect
       y="-516.35388"
       x="234.17288"
       height="1.9521024"
       width="103.55733"
       id="rect1225-2-4-3-1-7-4"
       style="fill:#ffff00;stroke-width:0.217807"
       transform="scale(1,-1)" />
    <rect
       style="fill:#ffff00;stroke-width:0.232238"
       id="rect1229-9-9-2-2-1-2-0-9-1-0-3-7-9-0-5-7-7-9-8-8-6-1-9-9-8-3-0-5-6"
       width="122.51108"
       height="2.9432533"
       x="-660.08014"
       y="109.51193"
       transform="matrix(-0.00611964,-0.99998127,0.99454826,-0.10427731,0,0)" />
    <rect
       y="525.70679"
       x="114.49594"
       height="1.9521024"
       width="44.480778"
       id="rect1225-2-4-3-1-7-4-7-2"
       style="fill:#ffff00;stroke-width:0.142747" />
    <rect
       style="fill:#ffff00;stroke-width:0.364875"
       id="rect1229-9-9-2-2-1-2-0-9-1-0-3-7-9-0-5-7-7-9-8-8-6-1-9-9-8-3-0-5-5"
       width="294.8262"
       height="3.0189548"
       x="-647.46625"
       y="89.622932"
       transform="matrix(-0.00254294,-0.99999677,0.96960963,-0.24465724,0,0)" />
    <rect
       transform="matrix(-0.00341073,-0.99999418,0.98276059,-0.18488272,0,0)"
       y="36.093704"
       x="-589.31537"
       height="2.9785562"
       width="219.81364"
       id="rect1229-9-9-2-2-1-2-0-9-1-0-3-7-9-0-5-7-7-9-8-8-6-1-9-9-8-3-0-5-5-7"
       style="fill:#ffff00;stroke-width:0.312941" />
    <rect
       style="fill:#ffff00;stroke-width:0.26842"
       id="rect1229-9-9-2-2-1-2-0-9-1-0-3-7-9-0-5-7-7-9-8-8-6-1-9-9-8-3-0-5-5-7-4"
       width="162.97775"
       height="2.9555454"
       x="-488.04135"
       y="299.55109"
       transform="matrix(-0.00460017,-0.99998942,0.99041197,-0.13814529,0,0)" />
    <rect
       style="fill:#ffff00;stroke-width:0.212655"
       id="rect1229-9-9-2-2-1-2-0-9-1-0-3-7-9-0-5-7-7-9-8-8-8"
       width="102.8867"
       height="2.9385405"
       x="-252.60352"
       y="-296.92731"
       transform="matrix(-0.99997345,0.00728691,-0.08771342,-0.99614575,0,0)" />
    <rect
       transform="matrix(-0.99999035,0.00439378,-0.14450195,-0.98950452,0,0)"
       y="-236.88934"
       x="-310.02847"
       height="2.9582629"
       width="170.63364"
       id="rect1229-9-9-2-2-1-2-0-9-1-0-3-7-9-0-5-7-7-9-8-8-8-0"
       style="fill:#ffff00;stroke-width:0.274778" />
    <rect
       style="fill:#ffff00;stroke-width:0.242961"
       id="rect1229-9-9-2-2-1-2-0-9-1-0-3-7-9-0-5-7-7-9-8-8-8-0-5"
       width="133.94273"
       height="2.9463842"
       x="-191.5885"
       y="-612.63037"
       transform="matrix(-0.99998433,0.00559736,-0.11388669,-0.99349374,0,0)" />
    <rect
       transform="matrix(-0.99999424,0.00339389,-0.18576814,-0.98259361,0,0)"
       y="-660.88049"
       x="-198.09407"
       height="2.9790688"
       width="220.90437"
       id="rect1229-9-9-2-2-1-2-0-9-1-0-3-7-9-0-5-7-7-9-8-8-8-0-5-3"
       style="fill:#ffff00;stroke-width:0.313744" />
    <rect
       style="fill:#ffff00;stroke-width:0.358561"
       id="rect1229-9-9-2-2-1-2-0-9-1-0-3-7-9-0-5-7-7-9-8-8-8-0-5-3-1"
       width="285.25858"
       height="3.0131862"
       x="-518.14081"
       y="-495.43326"
       transform="matrix(-0.99999655,0.00262823,-0.23717078,-0.97146797,0,0)" />
    <rect
       transform="matrix(-0.9999954,0.0030319,-0.20704605,-0.9783312,0,0)"
       y="-450.00122"
       x="-544.229"
       height="2.9920483"
       width="247.27916"
       id="rect1229-9-9-2-2-1-2-0-9-1-0-3-7-9-0-5-7-7-9-8-8-8-0-5-3-1-1"
       style="fill:#ffff00;stroke-width:0.332667" />
    <rect
       y="331.1279"
       x="6.4854035"
       height="1.9521024"
       width="81.163193"
       id="rect1223-6-7"
       style="fill:#ffff00;stroke-width:0.213448" />
    <rect
       style="fill:#ffff00;stroke-width:0.251632"
       id="rect1229-9-9-2-2-1-2-0-9-1-0-3-7-9-0-5-7-7-9-8-8-6-1-9-9-8-3-0-5-5-7-3"
       width="143.53664"
       height="2.9492116"
       x="-331.71628"
       y="4.7885051"
       transform="matrix(-0.00522321,-0.99998636,0.99253904,-0.12192728,0,0)" />
    <rect
       y="667.25433"
       x="72.800362"
       height="18.1038"
       width="29.004122"
       id="Territory_109"
       style="fill:#008080;stroke-width:0.183717" />
    <rect
       transform="matrix(-0.01584769,-0.99987442,0.99918155,-0.0404503,0,0)"
       y="339.98044"
       x="-304.59073"
       height="2.9296055"
       width="47.30809"
       id="rect1229-9-9-2-2-1-2-0-9-1-0-3-7-9-0-5-7-7-9-8-8-6-4"
       style="fill:#ffff00;stroke-width:0.14398" />
    <rect
       style="fill:#ffff00;stroke-width:0.201994"
       id="rect1229-9-9-2-2-1-2-0-9-1-0-3-7-9-0-5-7-7-9-8-8-6-4-9"
       width="92.895363"
       height="2.9364438"
       x="-421.52963"
       y="333.95956"
       transform="matrix(-0.00807063,-0.99996743,0.99685464,-0.07925163,0,0)" />
    <rect
       style="fill:#0000ff;fill-rule:evenodd;stroke-width:0.113688"
       id="BonusLink_Adminetal"
       width="37.022495"
       height="24.451885"
       x="377.12329"
       y="203.13875" />
    <rect
       style="fill:#0000ff;fill-rule:evenodd;stroke-width:0.108227"
       id="BonusLink_Benches"
       width="30.942942"
       height="26.883707"
       x="549.6972"
       y="290.99081" />
    <rect
       style="fill:#0000ff;fill-rule:evenodd;stroke-width:0.0791303"
       id="BonusLink_CINNLower"
       width="35.910198"
       height="24.605135"
       x="-25.270138"
       y="510.72281" />
    <rect
       inkscape:label="University_of_Reading"
       style="fill:#0000ff;fill-rule:evenodd;stroke-width:0.0853416"
       id="BonusLink_CINNUpper"
       width="31.84952"
       height="27.556707"
       x="-6.8409977"
       y="375.23151">
      <title
         id="title386">University_of_Reading</title>
    </rect>
    <rect
       style="fill:#0000ff;fill-rule:evenodd;stroke-width:0.16458"
       id="BonusLink_Croquet"
       width="27.26515"
       height="21.280117"
       x="197.50609"
       y="379.71707" />
    <rect
       style="fill:#0000ff;fill-rule:evenodd;stroke-width:0.0972612"
       id="BonusLink_MRISuite"
       width="28.595154"
       height="15.421448"
       x="80.913513"
       y="220.11708" />
    <rect
       style="fill:#0000ff;fill-rule:evenodd;stroke-width:0.16458"
       id="BonusLink_CentralPCLS"
       width="24.605135"
       height="25.935143"
       x="252.03638"
       y="344.47189" />
    <rect
       style="fill:#0000ff;fill-rule:evenodd;stroke-width:0.16458"
       id="BonusLink_CharlieWaller"
       width="28.595154"
       height="27.930153"
       x="158.27086"
       y="710.22388" />
    <rect
       style="fill:#0000ff;fill-rule:evenodd;stroke-width:0.16458"
       id="BonusLink_G37PCroometal"
       width="23.275127"
       height="28.595154"
       x="334.49683"
       y="705.56885" />
    <rect
       style="fill:#0000ff;fill-rule:evenodd;stroke-width:0.16458"
       id="BonusLink_Postgradandtesting"
       width="25.270138"
       height="23.94013"
       x="547.96301"
       y="526.68286" />
    <rect
       style="fill:#0000ff;fill-rule:evenodd;stroke-width:0.16458"
       id="BonusLink_Reception"
       width="27.930153"
       height="25.935143"
       x="401.6622"
       y="512.71783" />
    <rect
       style="fill:#0000ff;fill-rule:evenodd;stroke-width:0.137569"
       id="BonusLink_SeminaretalTop"
       width="23.273628"
       height="22.422501"
       x="133.66573"
       y="278.63651" />
    <rect
       transform="scale(1,-1)"
       style="fill:#ffff00;stroke-width:0.134887"
       id="rect1225-2-4-3-1-7-4-0"
       width="39.71698"
       height="1.9521024"
       x="311.9783"
       y="-541.95648" />
    <rect
       transform="matrix(-0.00577986,-0.9999833,0.99991689,-0.01289252,0,0)"
       y="125.63168"
       x="-704.96674"
       height="2.8705025"
       width="43.34626"
       id="rect1229-9-9-2-2-5-8-5-1-9-8-4-9"
       style="fill:#ffff00;stroke-width:0.136421" />
    <rect
       style="fill:#ffff00;stroke-width:0.257159"
       id="rect1229-9-9-2-2-5-8-2-2-9"
       width="149.81268"
       height="2.9511766"
       x="-18.30505"
       y="189.03651"
       transform="matrix(0.99998748,-0.00500448,0.12717385,0.99188044,0,0)" />
    <rect
       transform="matrix(-0.01248541,-0.99992205,0.99868226,-0.05132008,0,0)"
       y="153.31728"
       x="-254.77477"
       height="2.9310699"
       width="60.04784"
       id="rect1229-9-9-2-2-1-2-0-9-1-0-3-7-9-0-5-7-7-9-8-8-6-1-9-9-8-3-0-5-5-7-3-8"
       style="fill:#ffff00;stroke-width:0.162253" />
    <rect
       transform="matrix(-0.99996273,0.00863382,-0.07411113,-0.99724999,0,0)"
       y="-364.77594"
       x="-615.06335"
       height="2.9352868"
       width="86.836067"
       id="rect1229-9-9-2-2-1-2-0-9-1-0-3-7-9-0-5-7-7-9-8-8-8-4"
       style="fill:#ffff00;stroke-width:0.195257" />
    <rect
       style="fill:#ffff00;stroke-width:0.194419"
       id="rect1229-9-9-2-2-1-2-0-9-1-0-3-7-9-0-5-7-7-9-8-8-6-4-7"
       width="86.097626"
       height="2.9351432"
       x="-489.42856"
       y="638.22662"
       transform="matrix(-0.00870784,-0.99996209,0.99729636,-0.07348444,0,0)" />
    <rect
       style="fill:#ffff00;stroke-width:0.233754"
       id="rect1229-9-9-2-2-1-2-0-9-1-0-3-7-9-0-5-7-7-9-8-8-8-0-9"
       width="124.09783"
       height="2.9436772"
       x="-444.75613"
       y="-249.64014"
       transform="matrix(-0.99998175,0.00604142,-0.10561268,-0.99440734,0,0)" />
    <rect
       transform="matrix(-0.01428941,-0.9998979,0.99899355,-0.04485406,0,0)"
       y="464.84476"
       x="-319.03296"
       height="2.9301565"
       width="52.467091"
       id="rect1229-9-9-2-2-1-2-0-9-1-0-3-7-9-0-5-7-7-9-8-8-6-1-9-9-8-3-0-5-9-4-8-9-3-3-5-1"
       style="fill:#ffff00;stroke-width:0.151642" />
    <rect
       style="fill:#ffff00;stroke-width:0.112743"
       id="rect1227-3"
       width="1.5946505"
       height="17.243572"
       x="70.27607"
       y="285.57544" />
    <rect
       style="fill:#ffff00;stroke-width:0.112743"
       id="rect1221-0"
       width="15.308644"
       height="0.97605121"
       x="48.822498"
       y="307.40866" />
  </g>
</svg>
